<svg xmlns="http://www.w3.org/2000/svg" viewBox="0 0 32 32" fill="none">
  <rect width="32" height="32" rx="8" fill="#0C0C12"/>
  <path d="M16 3 C16.5 9.5 17 12.5 16 16 C15 12.5 15.5 9.5 16 3Z" fill="#C4AAFF"/>
  <path d="M16 29 C15.5 22.5 15 19.5 16 16 C17 19.5 16.5 22.5 16 29Z" fill="#C4AAFF"/>
  <path d="M3 16 C9.5 15.5 12.5 15 16 16 C12.5 17 9.5 16.5 3 16Z" fill="#C4AAFF"/>
  <path d="M29 16 C22.5 16.5 19.5 17 16 16 C19.5 15 22.5 15.5 29 16Z" fill="#C4AAFF"/>
  <circle cx="16" cy="16" r="2" fill="white" opacity="0.95"/>
</svg>
